<?xml version="1.0" encoding="UTF-8"?>
<svg width="1500px" height="1500px" viewBox="0 0 1500 1500" version="1.1" xmlns="http://www.w3.org/2000/svg" xmlns:xlink="http://www.w3.org/1999/xlink">
    <!-- Generator: Sketch 42 (36781) - http://www.bohemiancoding.com/sketch -->
    <title>Artboard 2</title>
    <desc>Created with Sketch.</desc>
    <defs>
        <circle id="path-1" cx="750" cy="750" r="620"></circle>
        <mask id="mask-2" maskContentUnits="userSpaceOnUse" maskUnits="objectBoundingBox" x="0" y="0" width="1240" height="1240" fill="white">
            <use xlink:href="#path-1"></use>
        </mask>
    </defs>
    <g id="Page-1" stroke="none" stroke-width="1" fill="none" fill-rule="evenodd">
        <g id="Artboard-2">
            <g id="bassheadstock" transform="translate(666.531318, 879.128288) rotate(-38.000000) translate(-666.531318, -879.128288) translate(208.234388, 601.060488)" fill="#000000">
                <path d="M44.9238223,184.163936 C44.9238223,184.163936 93.1141459,184.336931 108.835944,167.400116 C147.738974,125.490569 150.517762,86.3749909 189.420792,94.7569004 C228.323822,103.13881 764.629883,220.485544 806.311701,237.249363 C847.993519,254.013182 903.569277,300.368501 881.338974,378.599657 C868.430816,424.025045 822.984428,465.212722 761.851095,462.418752 C700.717762,459.624782 657.00683,394.605856 634.026853,385.329765 C617.354125,378.599657 231.10261,469.14886 231.10261,441.209162 C231.10261,413.269463 210.331031,381.12555 172.748065,362.978006 C135.165098,344.830462 31.0298829,337.832277 31.0298829,337.832277 L44.9238223,184.163936 Z" id="Path-2-Copy" transform="translate(458.720358, 278.083951) rotate(-13.000000) translate(-458.720358, -278.083951) "></path>
                <path d="M241.754545,33.5276382 C227.860606,33.5276382 229.706218,44.7797102 216.745455,50.2914573 C211.245918,52.6302128 197.293939,50.2914573 188.957576,55.879397 C180.621212,61.4673367 175.063636,65.8270702 175.063636,78.2311558 C175.063636,90.6352414 180.621212,97.7889447 188.957576,103.376884 C197.293939,108.964824 206.609642,107.834957 216.745455,117.346734 C226.881267,126.858511 230.639394,136.904523 230.639394,142.492462 L230.639394,162.050251 L252.869697,162.050251 C252.869697,162.050251 252.869697,148.080402 252.869697,142.492462 C252.869697,136.904523 254.922411,127.764413 266.763636,117.346734 C278.604861,106.929054 283.436364,114.552764 297.330303,103.376884 C311.224242,92.201005 308.445455,83.8190955 308.445455,78.2311558 C308.445455,72.6432161 308.445455,61.4673367 297.330303,55.879397 C286.215152,50.2914573 279.510128,55.2373423 266.763636,50.2914573 C254.017145,45.3455723 255.648485,33.5276382 241.754545,33.5276382 Z" id="Path-3-Copy-10"></path>
                <path d="M408.481818,33.5276382 C394.587879,33.5276382 396.433491,44.7797102 383.472727,50.2914573 C377.97319,52.6302128 364.021212,50.2914573 355.684848,55.879397 C347.348485,61.4673367 341.790909,65.8270702 341.790909,78.2311558 C341.790909,90.6352414 347.348485,97.7889447 355.684848,103.376884 C364.021212,108.964824 373.336915,107.834957 383.472727,117.346734 C393.60854,126.858511 397.366667,136.904523 397.366667,142.492462 L397.366667,162.050251 L419.59697,162.050251 C419.59697,162.050251 419.59697,148.080402 419.59697,142.492462 C419.59697,136.904523 421.649684,127.764413 433.490909,117.346734 C445.332134,106.929054 450.163636,114.552764 464.057576,103.376884 C477.951515,92.201005 475.172727,83.8190955 475.172727,78.2311558 C475.172727,72.6432161 475.172727,61.4673367 464.057576,55.879397 C452.942424,50.2914573 446.237401,55.2373423 433.490909,50.2914573 C420.744418,45.3455723 422.375758,33.5276382 408.481818,33.5276382 Z" id="Path-3-Copy-9"></path>
                <path d="M575.209091,33.5276382 C561.315152,33.5276382 563.160763,44.7797102 550.2,50.2914573 C544.700463,52.6302128 530.748485,50.2914573 522.412121,55.879397 C514.075758,61.4673367 508.518182,65.8270702 508.518182,78.2311558 C508.518182,90.6352414 514.075758,97.7889447 522.412121,103.376884 C530.748485,108.964824 540.064188,107.834957 550.2,117.346734 C560.335812,126.858511 564.093939,136.904523 564.093939,142.492462 L564.093939,162.050251 L586.324242,162.050251 C586.324242,162.050251 586.324242,148.080402 586.324242,142.492462 C586.324242,136.904523 588.376957,127.764413 600.218182,117.346734 C612.059407,106.929054 616.890909,114.552764 630.784848,103.376884 C644.678788,92.201005 641.9,83.8190955 641.9,78.2311558 C641.9,72.6432161 641.9,61.4673367 630.784848,55.879397 C619.669697,50.2914573 612.964673,55.2373423 600.218182,50.2914573 C587.47169,45.3455723 589.10303,33.5276382 575.209091,33.5276382 Z" id="Path-3-Copy-8"></path>
                <path d="M741.936364,33.5276382 C728.042424,33.5276382 729.888036,44.7797102 716.927273,50.2914573 C711.427736,52.6302128 697.475758,50.2914573 689.139394,55.879397 C680.80303,61.4673367 675.245455,65.8270702 675.245455,78.2311558 C675.245455,90.6352414 680.80303,97.7889447 689.139394,103.376884 C697.475758,108.964824 706.79146,107.834957 716.927273,117.346734 C727.063085,126.858511 730.821212,136.904523 730.821212,142.492462 L730.821212,162.050251 L753.051515,162.050251 C753.051515,162.050251 753.051515,148.080402 753.051515,142.492462 C753.051515,136.904523 755.10423,127.764413 766.945455,117.346734 C778.786679,106.929054 783.618182,114.552764 797.512121,103.376884 C811.406061,92.201005 808.627273,83.8190955 808.627273,78.2311558 C808.627273,72.6432161 808.627273,61.4673367 797.512121,55.879397 C786.39697,50.2914573 779.691946,55.2373423 766.945455,50.2914573 C754.198963,45.3455723 755.830303,33.5276382 741.936364,33.5276382 Z" id="Path-3-Copy-7"></path>
            </g>
            <use id="Oval" stroke="#000000" mask="url(#mask-2)" stroke-width="128" xlink:href="#path-1"></use>
        </g>
    </g>
</svg>